HIERARCHY
ROOT Hips
{
 OFFSET 0.000000 0.000000 0.000000
 CHANNELS 6 Xposition Yposition Zposition Yrotation Xrotation Zrotation
 JOINT Chest
 {
  OFFSET 0.000000 9.585900 0.002600
  CHANNELS 3 Yrotation Xrotation Zrotation
  JOINT Chest2
  {
   OFFSET 0.000000 9.601200 -0.005300
   CHANNELS 3 Yrotation Xrotation Zrotation
   JOINT Chest3
   {
    OFFSET 0.000000 9.561800 0.000000
    CHANNELS 3 Yrotation Xrotation Zrotation
    JOINT Chest4
    {
     OFFSET 0.000000 9.552100 0.000000
     CHANNELS 3 Yrotation Xrotation Zrotation
     JOINT Neck
     {
      OFFSET 0.000000 14.453000 0.000000
      CHANNELS 3 Yrotation Xrotation Zrotation
      JOINT Head
      {
       OFFSET 0.000000 8.936500 -0.011300
       CHANNELS 3 Yrotation Xrotation Zrotation
       End Site
       {
        OFFSET 0.000000 17.073600 -0.006000
       }
      }
     }
     JOINT RightCollar
     {
      OFFSET -2.921100 9.558500 0.000000
      CHANNELS 3 Yrotation Xrotation Zrotation
      JOINT RightShoulder
      {
       OFFSET -13.519700 0.000000 0.000000
       CHANNELS 3 Yrotation Xrotation Zrotation
       JOINT RightElbow
       {
        OFFSET 0.000000 -29.696600 0.000000
        CHANNELS 3 Yrotation Xrotation Zrotation
        JOINT RightWrist
        {
         OFFSET 0.000000 -24.004700 0.000000
         CHANNELS 3 Yrotation Xrotation Zrotation
         End Site
         {
          OFFSET 0.000000 -17.728500 0.000000
         }
        }
       }
      }
     }
     JOINT LeftCollar
     {
      OFFSET 2.921100 9.558500 0.000000
      CHANNELS 3 Yrotation Xrotation Zrotation
      JOINT LeftShoulder
      {
       OFFSET 13.519700 0.000000 0.000000
       CHANNELS 3 Yrotation Xrotation Zrotation
       JOINT LeftElbow
       {
        OFFSET 0.000000 -29.696600 0.000000
        CHANNELS 3 Yrotation Xrotation Zrotation
        JOINT LeftWrist
        {
         OFFSET 0.000000 -24.004700 0.000000
         CHANNELS 3 Yrotation Xrotation Zrotation
         End Site
         {
          OFFSET 0.000000 -17.728500 0.000000
         }
        }
       }
      }
     }
    }
   }
  }
 }
 JOINT RightHip
 {
  OFFSET -7.771700 -0.012900 -0.001300
  CHANNELS 3 Yrotation Xrotation Zrotation
  JOINT RightKnee
  {
   OFFSET 0.000000 -40.869800 0.001200
   CHANNELS 3 Yrotation Xrotation Zrotation
   JOINT RightAnkle
   {
    OFFSET 0.000000 -39.717900 0.002100
    CHANNELS 3 Yrotation Xrotation Zrotation
    JOINT RightToe
    {
     OFFSET 0.000000 -4.965400 11.033500
     CHANNELS 3 Yrotation Xrotation Zrotation
     End Site
     {
      OFFSET 0.000000 -1.423100 5.872300
     }
    }
   }
  }
 }
 JOINT LeftHip
 {
  OFFSET 7.771700 -0.012900 -0.001300
  CHANNELS 3 Yrotation Xrotation Zrotation
  JOINT LeftKnee
  {
   OFFSET 0.000000 -40.869800 0.001200
   CHANNELS 3 Yrotation Xrotation Zrotation
   JOINT LeftAnkle
   {
    OFFSET 0.000000 -39.717900 0.002100
    CHANNELS 3 Yrotation Xrotation Zrotation
    JOINT LeftToe
    {
     OFFSET 0.000000 -4.965400 11.033500
     CHANNELS 3 Yrotation Xrotation Zrotation
     End Site
     {
      OFFSET 0.000000 -1.423100 5.872300
     }
    }
   }
  }
 }
}
MOTION
Frames: 5
Frame Time: 0.008333
0.000000 85.388000 0.000000 0.000000 -5.767877 0.000000 0.000000 11.653817 0.000000 0.000000 -5.885947 0.000000 0.000000 -0.000000 0.000000 0.000000 -0.000000 0.000000 0.000000 12.528835 0.000000 0.000000 0.711642 0.000000 0.000000 -0.000000 0.000000 0.000000 0.000000 -90.000000 0.000000 -2.309062 0.000000 0.000000 2.309062 0.000000 0.000000 -0.000000 0.000000 0.000000 -0.000000 90.000000 0.000000 -2.309062 0.000000 0.000000 2.309062 0.000000 0.000000 8.520406 0.000000 0.000000 1.905762 0.000000 -0.000000 -4.658285 0.000000 0.000000 -0.000000 0.000000 0.000000 8.520406 0.000000 0.000000 1.905762 0.000000 -0.000000 -4.658285 0.000000 0.000000 -0.000000 0.000000
-6.065469 55.335836 28.158461 177.591082 -30.477450 -10.499514 0.798216 13.609503 5.297324 0.445477 7.885458 2.195875 0.602734 9.864565 2.773671 0.438012 7.894815 2.208884 -6.246625 23.352427 -0.523712 -6.708299 -0.381821 0.876691 0.689342 1.603676 -3.258589 -12.788452 -8.176885 5.824573 120.717266 -68.444785 -105.488352 15.023834 -15.567996 -49.471069 -10.774549 3.425891 -2.866495 3.795605 -6.832004 -0.397176 -107.240977 -51.290001 122.642695 16.836084 -47.742514 18.609218 -18.695279 -34.840863 6.886530 47.054418 87.668636 43.939579 1.187639 -19.106165 -0.446396 -0.020800 0.538546 -0.021188 -14.779006 -47.438091 18.180010 173.557453 79.152624 169.048011 -2.322626 -16.865263 1.537398 -0.490117 -1.851329 -0.222357
-6.065781 55.336657 28.160979 177.592980 -30.490702 -10.514899 0.807751 13.604564 5.293895 0.442835 7.900690 2.213406 0.606018 9.863461 2.771624 0.445170 7.893387 2.204298 -6.230820 23.360519 -0.519765 -6.695129 -0.375709 0.881696 0.678998 1.596553 -3.253795 -12.760102 -8.220904 5.757257 120.766641 -68.465316 -105.533853 15.031314 -15.574980 -49.449004 -10.775163 3.424817 -2.862765 3.825480 -6.803338 -0.364456 -107.223896 -51.319926 122.645039 16.841930 -47.741088 18.568819 -18.695273 -34.822360 6.899798 46.867297 87.664731 43.751423 1.198324 -19.099688 -0.448326 -0.023258 0.538882 -0.017270 -14.795609 -47.425399 18.192786 173.550161 79.148836 169.040425 -2.315919 -16.857746 1.534301 -0.493525 -1.856976 -0.222302
-6.066890 55.337677 28.164537 177.594664 -30.504855 -10.530571 0.813539 13.615923 5.306557 0.449926 7.896089 2.205114 0.627394 9.858396 2.759137 0.436349 7.903546 2.221608 -6.224916 23.363954 -0.513747 -6.694206 -0.372392 0.888962 0.664833 1.583259 -3.248197 -12.740027 -8.242510 5.727333 120.812630 -68.444233 -105.573736 15.026772 -15.565299 -49.440174 -10.783827 3.422762 -2.852066 3.863875 -6.779360 -0.332975 -107.100549 -51.321759 122.575402 16.929462 -47.784705 18.497925 -18.693430 -34.803053 6.913746 46.539025 87.664493 43.422445 1.209072 -19.092380 -0.448065 -0.027507 0.539982 -0.013753 -14.806718 -47.412562 18.203440 173.539931 79.146718 169.033679 -2.321393 -16.850650 1.534325 -0.490442 -1.861083 -0.221958
-6.070046 55.338294 28.169858 177.600913 -30.512794 -10.541848 0.813902 13.611042 5.303378 0.469421 7.884196 2.190009 0.628447 9.870961 2.774190 0.463040 7.899459 2.205923 -6.245967 23.381823 -0.475133 -6.687912 -0.368243 0.883650 0.618952 1.584787 -3.215088 -12.728537 -8.240235 5.723490 120.885026 -68.394260 -105.632874 14.993831 -15.529730 -49.438379 -10.818496 3.437007 -2.818870 3.881190 -6.763971 -0.313833 -107.061348 -51.324704 122.554305 16.914962 -47.783920 18.492824 -18.694582 -34.792601 6.920476 46.311683 87.659795 43.197390 1.202294 -19.083859 -0.444104 -0.010722 0.541202 -0.012865 -14.811904 -47.404697 18.200185 173.560271 79.153354 169.060334 -2.320847 -16.852018 1.529490 -0.483239 -1.852256 -0.217299
